<svg width="26" height="26" xmlns="http://www.w3.org/2000/svg" xmlns:xlink="http://www.w3.org/1999/xlink" xmlns:svgjs="http://svgjs.com/svgjs" fill="#6d6e71"><svg xmlns="http://www.w3.org/2000/svg" width="26" height="26" viewBox="1 1 25 25"><path paint-order="stroke fill markers" fill-rule="evenodd" d="M18.887 16.53l6.583 6.583-2.357 2.357-6.583-6.583 2.357-2.357zm-3.72-3.863a5.833 5.833 0 1 1 0 11.666 5.833 5.833 0 0 1 0-11.666zM11.833 1c5.983 0 10.834 4.85 10.834 10.833 0 5.983-4.85 10.834-10.834 10.834C5.85 22.667 1 17.817 1 11.833 1 5.85 5.85 1 11.833 1zm0 3.334a7.5 7.5 0 1 1 0 15 7.5 7.5 0 0 1 0-15zm12.5 18.333a1.667 1.667 0 1 1 0 3.333 1.667 1.667 0 0 1 0-3.333z"/></svg></svg>