<svg xmlns="http://www.w3.org/2000/svg" width="25" height="25" viewBox="0 0 25 25">
  <defs>
    <style>
      .cls-1 {
        fill: #6d6e71;
        fill-rule: evenodd;
      }
    </style>
  </defs>
  <path id="icon" class="cls-1" d="M1362.89,262.53l6.58,6.583-2.36,2.357-6.58-6.583Zm-3.72-3.863a5.834,5.834,0,1,1-5.84,5.833A5.831,5.831,0,0,1,1359.17,258.667ZM1355.83,247A10.834,10.834,0,1,1,1345,257.833,10.834,10.834,0,0,1,1355.83,247Zm0,3.334a7.5,7.5,0,1,1-7.5,7.5A7.494,7.494,0,0,1,1355.83,250.334Zm12.5,18.333a1.667,1.667,0,1,1-1.66,1.667A1.67,1.67,0,0,1,1368.33,268.667Z" transform="translate(-1345 -247)"/>
</svg>
